<?xml version="1.0" encoding="utf-8"?>
<!-- Generator: Adobe Illustrator 19.1.0, SVG Export Plug-In . SVG Version: 6.00 Build 0)  -->
<svg version="1.1" id="Layer_1" xmlns="http://www.w3.org/2000/svg" xmlns:xlink="http://www.w3.org/1999/xlink" x="0px" y="0px"
	 viewBox="-84 77 33 33" style="enable-background:new -84 77 33 33;" xml:space="preserve">
<style type="text/css">
	.st0{fill:#BA5F42;}
	.st1{fill:#161625;}
	.st2{fill:#FFFFFF;}
</style>
<circle class="st0" cx="-67.5" cy="93.5" r="16.5"/>
<g>
	<path class="st1" d="M-53,100.2c-0.3-0.6-0.6-1.3-0.7-1.9c0,0.2,0.2,0.2,0.3,0.3c0-0.2-0.2-0.2-0.2-0.4c0.2,0.2,0.2,0.4,0.5,0.5
		c0-0.2-0.2-0.4-0.2-0.6c0.1,0.1,0.2,0.1,0.3,0.1c0.1-0.1-0.1-0.1,0-0.2c0.1,0,0.2,0,0.3,0c-0.1-0.1-0.5-0.4-0.4-0.4
		c0.1,0-0.3-0.3-0.3-0.3c-0.2-0.2-0.2-0.4-0.4-0.6c0.1,0,0.1,0.1,0.1,0c-0.2-0.3-0.6-0.5-0.6-0.9c-0.2-0.1-0.3-0.5-0.3-0.7
		c0,0.1,0.1,0.1,0.1,0.1c0-0.1-0.1-0.2-0.1-0.4c0.1,0.1,0.1,0.2,0.3,0.3c-0.1-0.5-0.4-0.9-0.5-1.4c0,0,0,0,0.1,0
		c0-0.2-0.2-0.3-0.2-0.6c0.1,0,0.1,0.1,0.2,0.1c0-0.1-0.2-0.2-0.1-0.2c0.2,0,0.4,0.1,0.6,0.1c-0.1-0.1-0.2-0.1-0.3-0.2
		c0.2,0,0.3,0,0.5,0c0-0.1-0.1-0.1-0.2-0.1c0.1,0,0.2,0,0.2-0.1c-0.3-0.2-0.6-0.3-0.8-0.5c0,0,0,0,0,0c-0.5-0.2-0.8-0.5-1-1
		c0.1,0,0.1,0.1,0.1,0c-0.3-0.4-0.6-0.7-0.9-1.2c0.1,0,0.3,0.1,0.4,0.1c-0.2-0.2-0.5-0.3-0.7-0.5c0.1,0,0.2,0,0.2,0
		c-0.4-0.1-0.7-0.4-0.8-0.6c0.1,0.1,0.3,0.2,0.5,0.2c-0.2-0.1-0.3-0.2-0.5-0.4c0.1,0,0.2,0,0.3,0c0.1-0.1-0.1-0.1,0-0.1
		c0.1,0,0.2,0,0.2-0.1c-0.2-0.1-0.7-0.1-0.6-0.3c-0.3-0.1-0.6-0.2-0.8-0.4c0-0.1,0.1,0,0.1-0.1c-0.2,0-0.8-0.2-0.7-0.3
		c-0.4,0-0.6-0.3-1-0.4c0,0,0,0,0-0.1c-0.8-0.1-1.4-0.5-2-0.8c0.1,0,0.2,0,0.3,0c-0.7-0.1-1.4-0.4-2.1-0.4c-0.1,0-0.3,0-0.4,0
		c-0.4-0.1-0.6-0.6-0.7-1c0.7-0.2,0.4-1.9-0.4-1.7c0-0.2-0.1-0.2-0.2-0.4c0,0,0.1,0.1,0.2,0.1c-0.1-0.2-0.3-0.4-0.4-0.6
		c0.1,0,0.2,0.1,0.2,0c-0.2-0.1-0.6-0.2-0.5-0.4c-0.2-0.2-0.2-0.4-0.4-0.5c0.1,0,0.2-0.1,0.3-0.2c-0.4,0-0.7-0.2-0.9-0.4
		c0.1,0,0.3,0,0.4,0.1c-0.2-0.3-0.9-0.3-1.3-0.5c0.1,0,0.2,0,0.2-0.1c-0.2,0-0.3,0-0.5,0.1c-0.2-0.1-0.3-0.3-0.5-0.3
		c0,0.1,0.3,0.1,0.2,0.2c-0.4,0-0.8-0.2-1.2-0.1c0,0.1,0.2,0,0.2,0.1c-0.4,0-0.8,0-1.1,0.2c0,0,0.1,0,0.1,0
		c-0.4,0.1-0.9,0.2-1.1,0.5c0.1,0,0.2-0.1,0.3-0.1c-0.2,0.2-0.4,0.4-0.7,0.6c0.1,0,0.1,0,0.2,0c-0.2,0.2-0.3,0.2-0.4,0.4
		c0.1,0,0.1-0.1,0.2-0.1c-0.3,0.5-0.6,0.9-0.8,1.2c0.2,0.1,0,0.4,0.2,0.5c0,0-0.1,0.1-0.1,0.2c0.1,0.1,0.2-0.1,0.2-0.1
		c0,0.1-0.1,0.2,0,0.3c0.1,0,0.1-0.2,0.2-0.2c-0.1,0.3-0.3,0.5-0.3,0.9c0.1,0,0.1-0.1,0.1,0c0.2,0.2,0.1,0.7,0.2,1
		c0.1-0.1,0.1-0.2,0.2-0.3c0.1,0.2-0.1,0.4,0,0.5c0.1,0,0-0.2,0.1-0.1c0,0.3,0.1,0.5,0,0.8c0.1,0,0-0.1,0.1-0.1c0,0.4,0.2,0.7,0.4,1
		c-0.6,0.5-1.1,1-2,1.2c0.1,0,0.2,0,0.3,0c-0.3,0.2-0.7,0.3-1.2,0.4c0.1,0,0.2,0,0.2,0.1c-0.3,0.1-0.5,0.3-0.9,0.3
		c0.1,0,0,0.1-0.1,0.1c0,0.1,0.2,0.1,0.3,0.3c-0.1,0-0.1,0-0.2,0c0.1,0.2-0.2,0-0.3,0.2c0.2,0,0.3,0.1,0.5,0.1
		c-0.1,0.1-0.2,0-0.3,0.2c0,0,0.1,0,0.1,0c0,0-0.1,0-0.1,0.1c0.1,0,0.1,0,0.1,0c-0.4,0.5-0.8,0.7-1.4,1c0.2,0,0.3-0.1,0.5-0.1
		c-0.3,0.3-0.4,0.7-0.9,0.9c0.1,0.2-0.2,0.2-0.3,0.3c0.1,0,0.2,0,0.3,0c-0.1,0.3-0.3,0.5-0.5,0.7c0.1,0,0.1-0.1,0.1,0
		c-0.2,0.3-0.3,0.7-0.6,0.9c0,0,0.1,0,0.1,0c-0.3,0.5-0.5,1-1,1.3c0.2,0,0.2,0,0.3,0c-0.1,0.1-0.1,0.2-0.2,0.3
		c0.2,0,0.3-0.1,0.4-0.1c0,0.1-0.1,0.1-0.2,0.2c0.2-0.1,0.3-0.3,0.5-0.4c0,0-0.1,0.1,0,0.2c0,0,0.1-0.1,0.1-0.1c0,0.5-0.1,1-0.2,1.3
		c0.1-0.1,0.1-0.2,0.1-0.3c0,0.1,0,0.2,0.1,0.1c0.1,0.4-0.1,0.8-0.1,1c0,0,0.1-0.1,0.1,0c0,0.1-0.1,0.2,0,0.2c0,0,0.1-0.2,0.1-0.1
		c-0.1,0.2,0,0.5-0.1,0.8c0.1,0,0-0.1,0.1-0.1c0.1,0.2,0,0.5-0.1,0.7c0,0.1,0.1-0.1,0.2-0.1c-0.1,0.2-0.1,0.5-0.2,0.6
		c0.1,0.3-0.3,0.5-0.4,0.8c0,0,0.1-0.2,0.2-0.1c-0.2,0.3-0.3,0.6-0.5,0.9c0.2,0,0.2-0.1,0.4-0.1c0,0,0,0.1,0,0.1
		c0.1,0,0.1-0.1,0.1-0.1c0,0.1-0.1,0.2-0.1,0.3c0.1-0.1,0.1-0.2,0.2-0.2c-0.1,0.5-0.3,1.1-0.4,1.4c0,0,0.1-0.2,0.1-0.1
		c-0.1,0.3-0.2,0.5-0.3,0.8c0,0,0.1,0,0.1,0c-0.1,0.2-0.1,0.4-0.3,0.5c0.1,0,0.1-0.1,0.2-0.1c0,0.1,0,0.2-0.1,0.2c0,0.1,0.1,0,0.1,0
		c0,0.3-0.1,0.6-0.3,0.7c0.1,0,0.1-0.1,0.1,0c-0.1,0.1-0.1,0.2-0.2,0.3c0.1-0.1,0.1,0.2,0,0.2c0,0,0.1,0,0.1,0
		c0,0.1-0.1,0.2-0.2,0.3c1.2,1.2,2.5,2.1,4,2.9c-0.1-0.5-0.1-1.1,0-1.5c0,0.1,0,0.2,0.1,0.2c0-0.2,0-0.5,0.1-0.6
		c0,0.1,0.1,0.3,0.1,0.4c0-0.2,0-0.4,0-0.5c0.1,0.2,0.2,0.3,0.3,0.4c0-0.1,0-0.2,0-0.3c0.1,0,0,0.1,0.1,0.1c0-0.1-0.1-0.2-0.1-0.3
		c0.1-0.1,0.2-0.3,0.3-0.3c0,0.2-0.1,0.5-0.1,0.6c0,0,0,0,0,0c-0.1,0.5-0.2,0.7-0.4,1.1c0.1,0,0.1-0.1,0.2-0.1c0,0.1,0,0.3-0.1,0.3
		c0.1,0,0.1,0.1,0.1,0.2c0.2-0.1,0.2-0.2,0.3-0.3c0,0.1-0.1,0.2,0,0.2c0,0,0.1-0.1,0.1,0c0,0.3-0.1,0.6-0.1,0.8
		c2,0.9,4.3,1.4,6.6,1.4c2.4,0,4.6-0.5,6.7-1.4c0-0.1-0.1-0.2,0-0.2c0.1,0,0.1,0.1,0.2,0c0-0.1-0.2-0.2-0.2-0.4
		c0.1,0.1,0.2,0.2,0.4,0.1c-0.1-0.3-0.2-0.5-0.3-0.8c0.1,0,0,0.1,0.1,0.1c-0.1-0.3-0.2-0.8-0.1-1.1c0.1,0.1,0.1,0.2,0.2,0.3
		c-0.1-0.5,0-1.1,0.2-1.4c0,0.2,0.1,0.3,0.2,0.3c0-0.1-0.1-0.3,0-0.4c0.1,0.1,0.1,0.3,0.3,0.3c0-0.2-0.1-0.6,0-0.8
		c0,0.1,0,0.2,0.1,0.2c0-0.3-0.2-0.8,0-1.1c0,0.1,0,0.1,0.1,0.2c0.1-0.1,0-0.3,0-0.4c0,0.1,0,0.1,0.1,0.2c0-0.3-0.1-0.8,0.1-1
		c0,0.2,0,0.4,0.1,0.4c0-0.1,0-0.2,0-0.3c0.1,0.2,0.2,0.4,0.4,0.4c0-0.2,0-0.3-0.1-0.4c0,0,0,0.1,0.1,0.1c-0.1-0.2-0.2-0.5-0.2-0.8
		c0,0,0,0,0,0c-0.1-0.2-0.1-0.5-0.1-0.8c0,0.1,0.1,0.2,0.2,0.2c-0.2-0.2-0.3-0.8-0.1-1.2c0,0.3,0,0.5,0.2,0.7c0-0.6,0-1.2,0.2-1.7
		c0.1,0.4,0.1,1,0.2,1.5c0-0.1,0-0.2,0.1-0.3c0.1,0.1,0,0.3,0.1,0.4c0,0,0-0.1,0-0.1c0.1,0.3,0,0.6-0.1,0.9c0.1,0,0.1-0.1,0.2-0.1
		c0,0.5-0.1,0.9-0.2,1.3c0,0.1,0.1-0.1,0.1,0c0,0.1-0.1,0.2,0,0.3c0.2,0,0.2-0.1,0.3-0.2c0,0.1,0,0.3,0.1,0.4c0-0.2,0-0.5,0.1-0.6
		c0,0.1,0,0.3,0.1,0.3c0.1,0,0-0.2,0.1-0.2c0.2,0.4,0.3,0.9,0,1.4c0.2,0,0.2-0.2,0.3-0.3c0,0.2,0,0.4,0.1,0.5c0-0.1,0-0.2,0.1-0.2
		c0.1,0.2,0.2,0.3,0.3,0.5c0,0.1-0.2,0.3-0.1,0.4c0,0,0.1-0.1,0.1,0c0,0.4-0.4,0.6-0.5,0.8c0.1-0.1,0.2-0.2,0.3-0.2c0,0,0,0,0,0.1
		c1.7-1.4,3-3,4.1-4.9c-0.2-0.5-0.2-1-0.4-1.5C-53.3,100-53.1,100.2-53,100.2z M-74.3,105.9c-0.1-0.2,0-0.5,0-0.8
		c0.1,0.2-0.1-0.6,0-0.8c0.1,0,0.1,0.2,0.1,0.3c-0.1-0.5-0.1-1.4,0-1.9c0.1,0.2,0,0.6,0,0.8c0,0,0.1,0,0.1,0
		c0.1,0.6,0.2,1.1,0.1,1.7c0.1,0,0-0.2,0.1-0.2C-73.8,105.3-74.2,105.6-74.3,105.9z"/>
</g>
<path class="st2" d="M-71.6,83.1c-0.5,0-0.9,0.6-0.6,0.8C-71.5,84.3-71.1,83.1-71.6,83.1z M-69.4,82.3c-0.1,0.9,1.4,0.7,1.2,0
	C-68.5,82-69.1,82.1-69.4,82.3z"/>
</svg>
